<svg width="166" height="31" viewBox="0 0 166 31" fill="none" xmlns="http://www.w3.org/2000/svg">
<path d="M37.3732 17.1207V22.3465H34.2422V7.51447H40.1703C41.3114 7.51447 42.3133 7.71821 43.1761 8.12568C44.0458 8.53316 44.7138 9.11381 45.1799 9.86763C45.6461 10.6147 45.8792 11.467 45.8792 12.4245C45.8792 13.8779 45.3678 15.0256 44.345 15.8677C43.3292 16.703 41.9202 17.1207 40.1181 17.1207H37.3732ZM37.3732 14.6453H40.1703C40.9983 14.6453 41.628 14.4551 42.0593 14.0748C42.4977 13.6945 42.7169 13.1512 42.7169 12.4449C42.7169 11.7182 42.4977 11.1308 42.0593 10.6826C41.621 10.2344 41.0157 10.0035 40.2433 9.98988H37.3732V14.6453Z" fill="black"/>
<path d="M54.07 21.226C53.3255 22.1088 52.2957 22.5503 50.9807 22.5503C49.77 22.5503 48.8446 22.2107 48.2045 21.5316C47.5714 20.8525 47.2478 19.8575 47.2339 18.5468V11.3244H50.2501V18.445C50.2501 19.5927 50.7859 20.1665 51.8574 20.1665C52.8802 20.1665 53.583 19.8202 53.9656 19.1275V11.3244H56.9923V22.3465H54.1535L54.07 21.226Z" fill="black"/>
<path d="M65.0787 14.085C64.6682 14.0307 64.3064 14.0035 63.9933 14.0035C62.8522 14.0035 62.1042 14.3804 61.7494 15.1342V22.3465H58.7332V11.3244H61.5824L61.6659 12.6385C62.2712 11.6266 63.1097 11.1206 64.1812 11.1206C64.5151 11.1206 64.8282 11.1648 65.1205 11.253L65.0787 14.085Z" fill="black"/>
<path d="M76.1709 16.9373C76.1709 18.6351 75.7743 19.9968 74.9812 21.0222C74.1949 22.0409 73.1304 22.5503 71.7875 22.5503C70.6464 22.5503 69.7245 22.1632 69.0217 21.389V26.5843H66.0055V11.3244H68.8026L68.9069 12.4042C69.6375 11.5485 70.5907 11.1206 71.7666 11.1206C73.1582 11.1206 74.2401 11.6232 75.0125 12.6283C75.7848 13.6334 76.1709 15.0188 76.1709 16.7845V16.9373ZM73.1547 16.7234C73.1547 15.6979 72.9669 14.9067 72.5911 14.3498C72.2224 13.793 71.6831 13.5145 70.9734 13.5145C70.0272 13.5145 69.3766 13.8677 69.0217 14.574V19.0867C69.3905 19.8134 70.048 20.1767 70.9943 20.1767C72.4346 20.1767 73.1547 19.0256 73.1547 16.7234Z" fill="black"/>
<path d="M80.6984 22.3465H77.6718V6.69952H80.6984V22.3465Z" fill="black"/>
<path d="M87.856 22.5503C86.2 22.5503 84.8502 22.0545 83.8065 21.063C82.7698 20.0715 82.2514 18.7506 82.2514 17.1003V16.8151C82.2514 15.7081 82.4706 14.72 82.9089 13.8507C83.3473 12.9746 83.9665 12.3023 84.7667 11.8337C85.5738 11.3583 86.4922 11.1206 87.522 11.1206C89.0666 11.1206 90.2808 11.596 91.1644 12.5468C92.055 13.4975 92.5003 14.8456 92.5003 16.591V17.793H85.3094C85.4068 18.5129 85.699 19.0901 86.1861 19.5248C86.6801 19.9594 87.3028 20.1767 88.0543 20.1767C89.2162 20.1767 90.1242 19.7659 90.7783 18.9441L92.2603 20.5638C91.808 21.1886 91.1957 21.6776 90.4234 22.0307C89.6511 22.3771 88.7953 22.5503 87.856 22.5503ZM87.5116 13.5043C86.9132 13.5043 86.4261 13.7013 86.0504 14.0952C85.6816 14.4891 85.4451 15.0527 85.3407 15.7862H89.5363V15.5519C89.5224 14.8999 89.3415 14.3974 88.9936 14.0442C88.6457 13.6843 88.1517 13.5043 87.5116 13.5043Z" fill="black"/>
<path d="M98.7708 15.7353C97.0522 15.2531 95.7998 14.6622 95.0135 13.9627C94.2342 13.2565 93.8446 12.3872 93.8446 11.3549C93.8446 10.1868 94.3212 9.22247 95.2744 8.46185C96.2346 7.69444 97.4801 7.31073 99.0108 7.31073C100.054 7.31073 100.983 7.50768 101.797 7.90157C102.618 8.29546 103.252 8.83876 103.697 9.53147C104.149 10.2242 104.375 10.9814 104.375 11.8031H102.361C102.361 10.9067 102.069 10.2038 101.484 9.69446C100.9 9.17832 100.075 8.92026 99.0108 8.92026C98.0228 8.92026 97.2505 9.13418 96.6938 9.56203C96.1442 9.98308 95.8693 10.5705 95.8693 11.3244C95.8693 11.9288 96.1303 12.4415 96.6521 12.8626C97.1809 13.2768 98.075 13.6571 99.3344 14.0035C100.601 14.3498 101.589 14.7336 102.298 15.1546C103.015 15.5689 103.544 16.0544 103.885 16.6113C104.233 17.1682 104.407 17.8236 104.407 18.5774C104.407 19.7794 103.927 20.7438 102.966 21.4705C102.006 22.1903 100.722 22.5503 99.1152 22.5503C98.0715 22.5503 97.0974 22.3567 96.1929 21.9696C95.2884 21.5757 94.5891 21.0392 94.0951 20.3601C93.608 19.681 93.3645 18.9102 93.3645 18.0477H95.3788C95.3788 18.9441 95.7163 19.6538 96.3912 20.1767C97.0731 20.6929 97.9811 20.9509 99.1152 20.9509C100.173 20.9509 100.983 20.7404 101.547 20.3193C102.111 19.8983 102.392 19.3244 102.392 18.5978C102.392 17.8711 102.131 17.3108 101.61 16.9169C101.088 16.5163 100.141 16.1224 98.7708 15.7353Z" fill="black"/>
<path d="M109.842 19.5859L112.472 11.3244H114.539L109.999 24.0477C109.296 25.8814 108.179 26.7982 106.648 26.7982L106.283 26.7676L105.563 26.6352V25.1072L106.085 25.1479C106.739 25.1479 107.247 25.0189 107.609 24.7608C107.977 24.5027 108.28 24.0307 108.517 23.3448L108.945 22.2243L104.916 11.3244H107.024L109.842 19.5859Z" fill="black"/>
<path d="M117.563 11.3244L117.626 12.7098C118.489 11.6503 119.616 11.1206 121.007 11.1206C123.394 11.1206 124.598 12.4347 124.619 15.0629V22.3465H122.688V15.0527C122.681 14.2582 122.493 13.6707 122.124 13.2904C121.762 12.9101 121.195 12.72 120.423 12.72C119.797 12.72 119.247 12.8829 118.774 13.2089C118.301 13.5349 117.932 13.9627 117.668 14.4925V22.3465H115.737V11.3244H117.563Z" fill="black"/>
<path d="M133.968 22.3465C133.856 22.1292 133.766 21.7421 133.696 21.1852C132.799 22.0952 131.727 22.5503 130.482 22.5503C129.369 22.5503 128.454 22.2447 127.737 21.6334C127.027 21.0154 126.672 20.2345 126.672 19.2905C126.672 18.1428 127.118 17.2531 128.008 16.6215C128.906 15.9831 130.165 15.664 131.787 15.664H133.665V14.7981C133.665 14.1393 133.463 13.6164 133.06 13.2293C132.656 12.8354 132.061 12.6385 131.275 12.6385C130.586 12.6385 130.009 12.8082 129.543 13.1478C129.076 13.4874 128.843 13.8982 128.843 14.3804H126.902C126.902 13.8303 127.1 13.3006 127.497 12.7913C127.901 12.2751 128.443 11.8677 129.125 11.5688C129.814 11.27 130.569 11.1206 131.39 11.1206C132.691 11.1206 133.71 11.4398 134.448 12.0782C135.185 12.7098 135.568 13.5824 135.596 14.6962V19.7693C135.596 20.7811 135.728 21.5859 135.993 22.1835V22.3465H133.968ZM130.764 20.9102C131.369 20.9102 131.943 20.7574 132.486 20.4518C133.028 20.1462 133.422 19.7489 133.665 19.2599V16.9984H132.152C129.786 16.9984 128.603 17.6742 128.603 19.0256C128.603 19.6164 128.805 20.0783 129.209 20.411C129.612 20.7438 130.131 20.9102 130.764 20.9102Z" fill="black"/>
<path d="M147.627 16.9577C147.627 18.6351 147.234 19.9866 146.448 21.012C145.662 22.0375 144.597 22.5503 143.254 22.5503C141.884 22.5503 140.805 22.1258 140.019 21.2769V26.5843H138.088V11.3244H139.852L139.946 12.5468C140.732 11.596 141.825 11.1206 143.223 11.1206C144.58 11.1206 145.651 11.6198 146.438 12.6181C147.231 13.6164 147.627 15.0052 147.627 16.7845V16.9577ZM145.697 16.7438C145.697 15.501 145.425 14.5196 144.883 13.7998C144.34 13.0799 143.595 12.72 142.649 12.72C141.48 12.72 140.604 13.2259 140.019 14.2378V19.5044C140.597 20.5095 141.48 21.012 142.67 21.012C143.595 21.012 144.329 20.6555 144.872 19.9424C145.422 19.2226 145.697 18.1563 145.697 16.7438Z" fill="black"/>
<path d="M151.205 20.8083H157.812V22.3465H148.846V20.9611L155.077 12.8829H148.94V11.3244H157.499V12.6588L151.205 20.8083Z" fill="black"/>
<path d="M161.615 1.14828H160.344V4.46636H159.825V1.14828H158.556V0.744385H161.615V1.14828Z" fill="black"/>
<path d="M162.737 0.744385L164.03 3.78127L165.324 0.744385H166V4.46636H165.478V3.01694L165.527 1.45248L164.229 4.46636H163.829L162.533 1.46015L162.585 3.01694V4.46636H162.063V0.744385H162.737Z" fill="black"/>
<path d="M0.019937 27.9756C0.0201405 27.4726 0.16768 26.981 0.443903 26.5629C0.720125 26.1447 1.11263 25.8189 1.57178 25.6265C2.03094 25.4342 2.53613 25.3839 3.02349 25.4822C3.51084 25.5804 3.95848 25.8227 4.3098 26.1785C4.66112 26.5342 4.90035 26.9874 4.99724 27.4808C5.09414 27.9741 5.04434 28.4855 4.85415 28.9502C4.66396 29.4149 4.34192 29.8121 3.92874 30.0915C3.51556 30.371 3.0298 30.5201 2.53288 30.5202C2.20279 30.5202 1.87592 30.4544 1.57096 30.3266C1.266 30.1987 0.988924 30.0113 0.755556 29.7749C0.522188 29.5386 0.337106 29.2581 0.210885 28.9494C0.0846645 28.6407 0.0197793 28.3098 0.019937 27.9756V27.9756ZM5.96373 25.4372C5.73827 25.0263 5.62879 24.5606 5.64727 24.0909C5.66575 23.6213 5.81147 23.1659 6.06849 22.7744C6.32552 22.383 6.68394 22.0706 7.10456 21.8716C7.52518 21.6725 7.99179 21.5943 8.45334 21.6456H8.45523C8.53103 21.6541 8.6065 21.6658 8.6811 21.6818C10.0499 21.8747 11.4436 21.6117 12.6518 20.9325C13.8599 20.2532 14.8171 19.1946 15.3787 17.9164C15.4051 17.8437 15.4351 17.7727 15.4679 17.7032C15.4679 17.7032 15.4679 17.702 15.4679 17.7015C15.6703 17.2743 15.9859 16.9123 16.3794 16.6557C16.773 16.3991 17.2291 16.258 17.6971 16.2481C18.1651 16.2382 18.6267 16.3598 19.0305 16.5995C19.4343 16.8392 19.7645 17.1875 19.9845 17.6058C20.2045 18.024 20.3055 18.4958 20.2765 18.9688C20.2475 19.4417 20.0894 19.8972 19.82 20.2847C19.5505 20.6721 19.1802 20.9764 18.7502 21.1636C18.3202 21.3508 17.8473 21.4136 17.3841 21.3451C17.3807 21.3451 17.3774 21.3439 17.374 21.3432C17.3598 21.341 17.3457 21.3384 17.3316 21.3365C15.937 21.1211 14.5111 21.3805 13.2778 22.074C12.0445 22.7675 11.0736 23.8559 10.5174 25.1683C10.5116 25.1816 10.5065 25.195 10.5003 25.2085C10.4993 25.2118 10.4981 25.2149 10.4967 25.2179C10.3081 25.656 10.0022 26.032 9.61354 26.3034C9.2249 26.5748 8.76903 26.7308 8.29743 26.7537C7.82583 26.7766 7.3573 26.6655 6.94478 26.433C6.53227 26.2005 6.19221 25.8559 5.96304 25.4381L5.96373 25.4372ZM2.53116 23.3951C2.05909 23.3949 1.59646 23.2612 1.19551 23.009C0.794557 22.7567 0.47125 22.3961 0.262091 21.9677C0.0529311 21.5393 -0.0337504 21.0603 0.0118328 20.5847C0.0574159 20.109 0.233448 19.6558 0.520055 19.2761C0.521942 19.2738 0.524343 19.2707 0.526744 19.2681C0.535491 19.2565 0.543895 19.2454 0.552813 19.2334C1.41869 18.1054 1.88807 16.7172 1.88663 15.2887C1.88901 13.8603 1.42033 12.4719 0.554871 11.3436C0.546467 11.3319 0.53772 11.3208 0.528459 11.3088C0.526051 11.3064 0.52387 11.3037 0.521942 11.3008C0.237836 10.9242 0.0624729 10.4752 0.0153436 10.0038C-0.0317856 9.53235 0.0511658 9.0569 0.254977 8.63031C0.458789 8.20373 0.775476 7.8427 1.16984 7.58737C1.5642 7.33205 2.02078 7.19242 2.48884 7.184C2.9569 7.17559 3.4181 7.29873 3.82116 7.53973C4.22423 7.78073 4.55337 8.13015 4.77202 8.54914C4.99066 8.96814 5.09023 9.44031 5.05966 9.91315C5.02909 10.386 4.86958 10.841 4.59886 11.2276C4.59886 11.2276 4.59886 11.2288 4.59766 11.2293C4.54947 11.2892 4.50282 11.3496 4.45686 11.4116C3.62517 12.529 3.17521 13.8899 3.1749 15.289C3.17459 16.688 3.62395 18.0491 4.45514 19.1669C4.50093 19.2285 4.54741 19.2896 4.59561 19.3495C4.59616 19.3498 4.59659 19.3503 4.59681 19.3509C4.86511 19.7344 5.02407 20.1852 5.05632 20.654C5.08856 21.1228 4.99284 21.5915 4.77962 22.0089C4.5664 22.4263 4.24389 22.7764 3.84737 23.0208C3.45085 23.2651 2.99557 23.3944 2.53133 23.3945L2.53116 23.3951ZM4.45548 19.1674C4.50505 19.2259 4.55204 19.287 4.59629 19.3501C4.5481 19.2902 4.5011 19.2291 4.45548 19.1674ZM8.00793 18.2855C7.28998 17.8882 6.74004 17.2392 6.46142 16.4604C6.1828 15.6817 6.19466 14.8267 6.49478 14.0562C6.79491 13.2857 7.36263 12.6526 8.09133 12.2758C8.82002 11.8991 9.65954 11.8046 10.4522 12.0101C11.2449 12.2156 11.9361 12.707 12.3961 13.392C12.8561 14.077 13.0532 14.9084 12.9504 15.7301C12.8476 16.5518 12.4519 17.3072 11.8377 17.8545C11.2235 18.4017 10.433 18.7032 9.61479 18.7022C9.05319 18.7014 8.50074 18.5581 8.00793 18.2855V18.2855ZM21.7727 15.2745C21.7727 14.7715 21.9201 14.2797 22.1962 13.8615C22.4723 13.4432 22.8648 13.1172 23.3239 12.9248C23.7831 12.7323 24.2883 12.6819 24.7757 12.7801C25.2631 12.8782 25.7108 13.1204 26.0622 13.4762C26.4136 13.8319 26.653 14.285 26.7499 14.7784C26.8469 15.2718 26.7971 15.7832 26.607 16.2479C26.4168 16.7127 26.0948 17.1099 25.6816 17.3894C25.2684 17.6689 24.7826 17.8181 24.2856 17.8182C23.6192 17.8181 22.98 17.5501 22.5087 17.0731C22.0375 16.5961 21.7727 15.9491 21.7727 15.2745V15.2745ZM16.5358 14.0008C16.0767 13.7438 15.7083 13.348 15.4823 12.8687V12.8673C15.4625 12.8168 15.442 12.7666 15.4205 12.7168C15.4418 12.7665 15.4624 12.8167 15.4823 12.8673C15.4495 12.7978 15.4195 12.7265 15.3934 12.6541C14.832 11.3756 13.8749 10.3166 12.6667 9.63716C11.4584 8.95769 10.0645 8.69458 8.69551 8.88756C8.62005 8.89832 8.54493 8.90995 8.46946 8.92367C8.4689 8.92381 8.46831 8.92381 8.46775 8.92367C8.00234 8.97558 7.53183 8.89581 7.10853 8.69324C6.68523 8.49068 6.32572 8.17324 6.06998 7.77623C5.81424 7.37922 5.67229 6.9182 5.65991 6.44442C5.64753 5.97063 5.76521 5.50266 5.99985 5.09252C6.2345 4.68238 6.57693 4.34616 6.98906 4.12122C7.40119 3.89629 7.86688 3.79146 8.33434 3.81839C8.80181 3.84532 9.25274 4.00296 9.63699 4.27378C10.0212 4.5446 10.3238 4.91799 10.5109 5.35243C10.5121 5.35521 10.5137 5.35833 10.5149 5.3618C10.5205 5.37552 10.5258 5.38871 10.532 5.40191C11.0882 6.71437 12.0591 7.80279 13.2923 8.49637C14.5256 9.18994 15.9515 9.44942 17.3462 9.23407C17.3605 9.23216 17.3743 9.22956 17.3886 9.2273C17.3922 9.2273 17.3956 9.22609 17.3987 9.22557C17.7966 9.16639 18.2028 9.20404 18.5835 9.33539C18.9642 9.46674 19.3085 9.68801 19.5879 9.98089C19.8673 10.2738 20.0738 10.6298 20.1902 11.0195C20.3066 11.4092 20.3296 11.8214 20.2572 12.2219C20.1849 12.6224 20.0194 12.9997 19.7743 13.3226C19.5292 13.6454 19.2117 13.9045 18.848 14.0784C18.4843 14.2523 18.0849 14.3359 17.6829 14.3225C17.2809 14.309 16.8879 14.1988 16.5364 14.0009L16.5358 14.0008ZM4.59818 11.2298C4.55393 11.2929 4.50694 11.354 4.45703 11.4121C4.50316 11.3501 4.54964 11.2897 4.59818 11.2298ZM8.69551 8.88756C8.6209 8.90353 8.54544 8.91516 8.46946 8.92367C8.54413 8.91024 8.61948 8.8982 8.69551 8.88756ZM0.00587331 2.54384C0.00580547 2.04078 0.153115 1.54899 0.429172 1.13068C0.70523 0.712359 1.09764 0.386299 1.55677 0.193729C2.0159 0.00116 2.52114 -0.0492693 3.00858 0.0488186C3.49603 0.146907 3.9438 0.389106 4.29525 0.744789C4.64671 1.10047 4.88608 1.55366 4.98308 2.04705C5.08008 2.54044 5.03037 3.05186 4.84022 3.51665C4.65007 3.98143 4.32803 4.3787 3.91482 4.65822C3.50161 4.93774 3.0158 5.08695 2.51881 5.08699C1.85243 5.08699 1.21333 4.81907 0.742078 4.34215C0.270825 3.86523 0.00600975 3.21837 0.00587331 2.54384V2.54384Z" fill="url(#paint0_linear)"/>
<defs>
<linearGradient id="paint0_linear" x1="19.552" y1="30.5549" x2="-3.25373" y2="5.18175" gradientUnits="userSpaceOnUse">
<stop stop-color="#00C2FF"/>
<stop offset="0.515625" stop-color="#5400A5"/>
<stop offset="1" stop-color="#FF123D"/>
</linearGradient>
</defs>
</svg>
