<svg width="128" height="128" viewBox="0 0 128 128" fill="none" xmlns="http://www.w3.org/2000/svg">
<path d="M87 0H41C18.3563 0 0 18.3563 0 41V87C0 109.644 18.3563 128 41 128H87C109.644 128 128 109.644 128 87V41C128 18.3563 109.644 0 87 0Z" fill="#6555C0"/>
<path d="M70.404 21.0809C67.2675 20.3319 63.999 19.924 60.6353 19.924C37.3006 19.924 18.3834 38.989 18.3834 62.506C18.3834 86.0229 37.3006 105.088 60.6353 105.088C63.999 105.088 67.2665 104.68 70.404 103.931V21.0809Z" fill="#00B8D9"/>
<path d="M69.0863 104.236C84.741 101.033 97.2433 89.105 101.4 73.71L69.0863 75.472V104.236Z" fill="#FF991F"/>
<path d="M69.0863 31.0851C67.7765 30.9311 66.4509 30.8311 65.1004 30.8311C46.2656 30.8311 30.9968 46.219 30.9968 65.201C30.9968 84.1831 46.2656 99.5711 65.1004 99.5711C66.4509 99.5711 67.7765 99.4711 69.0863 99.3171V31.0851Z" fill="white"/>
<path d="M51.9521 65.3851C56.7477 65.3851 60.6353 61.4671 60.6353 56.6341C60.6353 51.801 56.7477 47.8831 51.9521 47.8831C47.1566 47.8831 43.269 51.801 43.269 56.6341C43.269 61.4671 47.1566 65.3851 51.9521 65.3851Z" fill="#403294"/>
<path d="M69.0863 75.471C69.0863 75.471 82.303 89.46 101.403 73.709C101.403 73.709 107.59 67.495 115.542 74.913C116.418 75.731 117.831 75.016 117.735 73.817C116.833 62.524 110.656 28.361 69.0863 20.777V75.471Z" fill="#FFC400"/>
<path d="M78.5667 33.179C80.7629 33.8148 82.8072 33.4185 83.1329 32.2938C83.4585 31.1691 81.9421 29.7419 79.7459 29.1061C77.5497 28.4703 75.5054 28.8666 75.1797 29.9913C74.8541 31.116 76.3705 32.5432 78.5667 33.179Z" fill="#FF991F"/>
</svg>
