<svg width="57" height="57" viewBox="0 0 57 57" fill="none" xmlns="http://www.w3.org/2000/svg">
<rect width="57" height="57" rx="19" fill="#FF6550"/>
<rect x="1" y="1" width="55" height="55" rx="18" stroke="black" stroke-opacity="0.19" stroke-width="2"/>
<path d="M26.75 31.5775V39H29.25V31.5775C34.1825 32.1925 38 36.4 38 41.5H18C18 39.0642 18.889 36.7122 20.5 34.8853C22.111 33.0584 24.3334 31.8822 26.75 31.5775V31.5775ZM28 30.25C23.8562 30.25 20.5 26.8938 20.5 22.75C20.5 18.6062 23.8562 15.25 28 15.25C32.1438 15.25 35.5 18.6062 35.5 22.75C35.5 26.8938 32.1438 30.25 28 30.25Z" fill="white"/>
</svg>
