<svg width="57" height="57" viewBox="0 0 57 57" fill="none" xmlns="http://www.w3.org/2000/svg">
<rect width="57" height="57" rx="19" fill="#38D96F"/>
<rect x="1" y="1" width="55" height="55" rx="18" stroke="black" stroke-opacity="0.19" stroke-width="2"/>
<path d="M17.7287 17.5325L28 15.25L38.2712 17.5325C38.5488 17.5942 38.7971 17.7487 38.975 17.9705C39.153 18.1923 39.25 18.4681 39.25 18.7525V31.2362C39.2499 32.4709 38.945 33.6865 38.3624 34.775C37.7797 35.8636 36.9373 36.7914 35.91 37.4763L28 42.75L20.09 37.4763C19.0628 36.7915 18.2206 35.8639 17.6379 34.7756C17.0553 33.6873 16.7503 32.472 16.75 31.2375V18.7525C16.75 18.4681 16.847 18.1923 17.025 17.9705C17.2029 17.7487 17.4512 17.5942 17.7287 17.5325V17.5325ZM29.25 26.5V20.25L23 29H26.75V35.25L33 26.5H29.25Z" fill="white"/>
</svg>
