<svg width="202" height="202" viewBox="0 0 202 202" fill="none" xmlns="http://www.w3.org/2000/svg">
<g filter="url(#filter0_b)">
<circle cx="101" cy="101" r="101" fill="black" fill-opacity="0.69"/>
</g>
<path d="M74.2675 137.571L78.3447 139.953C85.2204 143.963 93.0406 146.069 101 146.052C109.911 146.052 118.621 143.41 126.03 138.46C133.439 133.509 139.213 126.473 142.623 118.241C146.033 110.009 146.925 100.95 145.187 92.2109C143.448 83.4717 139.158 75.4442 132.857 69.1435C126.556 62.8429 118.529 58.5521 109.789 56.8137C101.05 55.0754 91.9918 55.9676 83.7596 59.3775C75.5274 62.7874 68.4912 68.5618 63.5408 75.9706C58.5904 83.3793 55.9482 92.0897 55.9482 101C55.9482 109.087 58.0712 116.842 62.0527 123.661L64.4292 127.739L60.7518 141.26L74.2675 137.571ZM44.7077 157.315L52.3215 129.338C47.3046 120.738 44.6688 110.957 44.6851 101C44.6851 69.8973 69.8974 44.6851 101 44.6851C132.103 44.6851 157.315 69.8973 157.315 101C157.315 132.103 132.103 157.315 101 157.315C91.0481 157.331 81.2711 154.698 72.6737 149.685L44.7077 157.315ZM80.6761 74.5771C81.4307 74.5208 82.191 74.5208 82.9456 74.5546C83.2497 74.5771 83.5538 74.6109 83.8579 74.6447C84.7533 74.7461 85.7389 75.2923 86.0711 76.0469C87.7493 79.8538 89.3824 83.6889 90.9593 87.5352C91.3084 88.3912 91.1 89.4894 90.4355 90.5593C89.9785 91.2829 89.4841 91.9821 88.9544 92.6543C88.3181 93.4708 86.9496 94.9688 86.9496 94.9688C86.9496 94.9688 86.3921 95.6333 86.6061 96.4612C86.6849 96.7765 86.944 97.2327 87.1805 97.6156L87.5128 98.1506C88.9544 100.555 90.8917 102.994 93.2569 105.291C93.9327 105.945 94.5916 106.615 95.3012 107.24C97.9367 109.566 100.921 111.464 104.143 112.871L104.171 112.883C104.649 113.091 104.892 113.204 105.59 113.502C105.939 113.649 106.299 113.778 106.666 113.874C107.044 113.97 107.442 113.952 107.81 113.822C108.178 113.691 108.499 113.455 108.732 113.142C112.81 108.203 113.181 107.882 113.215 107.882V107.893C113.498 107.629 113.835 107.428 114.202 107.305C114.569 107.182 114.958 107.138 115.344 107.178C115.682 107.2 116.025 107.262 116.34 107.403C119.331 108.772 124.225 110.906 124.225 110.906L127.502 112.376C128.054 112.641 128.555 113.266 128.572 113.868C128.595 114.245 128.628 114.854 128.499 115.969C128.319 117.427 127.879 119.179 127.44 120.097C127.139 120.723 126.74 121.297 126.258 121.797C125.689 122.394 125.067 122.937 124.399 123.419C124.168 123.593 123.933 123.762 123.695 123.926C122.995 124.37 122.275 124.784 121.538 125.165C120.088 125.935 118.487 126.377 116.847 126.46C115.805 126.517 114.764 126.595 113.716 126.539C113.671 126.539 110.517 126.049 110.517 126.049C102.511 123.943 95.1062 119.998 88.8925 114.527C87.6198 113.406 86.4428 112.201 85.2376 111.002C80.2256 106.018 76.4412 100.64 74.1436 95.5601C72.9675 93.067 72.3323 90.3533 72.2795 87.5972C72.2563 84.178 73.374 80.8487 75.4557 78.1362C75.8668 77.6069 76.2554 77.055 76.9255 76.4186C77.6407 75.7428 78.0913 75.3824 78.5812 75.1346C79.2326 74.8082 79.9433 74.6166 80.6705 74.5715L80.6761 74.5771Z" fill="white"/>
<circle cx="21.4243" cy="41.0122" r="14.6909" fill="#38D96F"/>
<defs>
<filter id="filter0_b" x="-32" y="-32" width="266" height="266" filterUnits="userSpaceOnUse" color-interpolation-filters="sRGB">
<feFlood flood-opacity="0" result="BackgroundImageFix"/>
<feGaussianBlur in="BackgroundImage" stdDeviation="16"/>
<feComposite in2="SourceAlpha" operator="in" result="effect1_backgroundBlur"/>
<feBlend mode="normal" in="SourceGraphic" in2="effect1_backgroundBlur" result="shape"/>
</filter>
</defs>
</svg>
