<svg width="31" height="31" viewBox="0 0 31 31" fill="none" xmlns="http://www.w3.org/2000/svg">
<path d="M15.5 31C6.93935 31 0 24.0606 0 15.5C0 6.93935 6.93935 0 15.5 0C24.0606 0 31 6.93935 31 15.5C31 24.0606 24.0606 31 15.5 31ZM10.6795 17.3135L10.6996 17.3026L12.0481 21.7512C12.2217 22.2332 12.4604 22.32 12.7503 22.2797C13.0417 22.241 13.1951 22.0844 13.3858 21.9015L15.2272 20.1221L19.1797 23.0485C19.902 23.4469 20.4212 23.2407 20.601 22.3789L23.1694 10.2548C23.453 9.1264 22.957 8.6738 22.0813 9.0334L6.99515 14.8614C5.96595 15.2737 5.97215 15.8503 6.80915 16.106L10.6795 17.315V17.3135Z" fill="#2167F6"/>
</svg>
